<?xml version="1.0" encoding="UTF-8" standalone="no"?>
<svg
   xmlns:dc="http://purl.org/dc/elements/1.1/"
   xmlns:cc="http://creativecommons.org/ns#"
   xmlns:rdf="http://www.w3.org/1999/02/22-rdf-syntax-ns#"
   xmlns:svg="http://www.w3.org/2000/svg"
   xmlns="http://www.w3.org/2000/svg"
   id="svg8"
   version="1.1"
   viewBox="0 0 4.2333332 4.2333335"
   height="16"
   width="16">
  <defs
     id="defs2" />
  <metadata
     id="metadata5">
    <rdf:RDF>
      <cc:Work
         rdf:about="">
        <dc:format>image/svg+xml</dc:format>
        <dc:type
           rdf:resource="http://purl.org/dc/dcmitype/StillImage" />
        <dc:title></dc:title>
      </cc:Work>
    </rdf:RDF>
  </metadata>
  <g
     transform="translate(0,-292.76665)"
     id="layer1">
    <g
       id="g3244">
      <path
         class="a"
         d="M 3.9687517,295.67706 H 3.83646 a 1.1512021,1.1512021 0 0 1 -0.396875,-0.79375 v -0.79375 a 1.3099521,1.3099521 0 0 0 -1.3229166,-1.32292 1.3099521,1.3099521 0 0 0 -1.32291673,1.32292 v 0.79375 a 1.1512021,1.1512021 0 0 1 -0.396875,0.79375 H 0.264585 a 0.264585,0.264585 0 0 0 0,0.52917 h 3.7041667 a 0.264585,0.264585 0 0 0 0,-0.52917 z"
         id="path2118"
         style="stroke-width:0.26458332;fill:#bcbccb;fill-opacity:1" />
      <path
         class="a"
         d="M 2.6458332,296.47082 H 1.5875 a 0.52916667,0.52943899 0 0 0 1.0583332,0 z"
         id="path2106"
         style="stroke-width:0.26465139;fill:#bcbccb;fill-opacity:1" />
    </g>
  </g>
</svg>
